<svg width="64" height="64" xmlns="http://www.w3.org/2000/svg" xml:space="preserve" version="1.1" enable-background="new 0 0 128 128">

 <g>
  <title>Layer 1</title>
  <g stroke="null" id="svg_11">
   <g stroke="null" id="svg_1">
    <circle stroke="null" id="svg_2" r="31.99406" fill="#000000" cy="31.99406" cx="31.99406"/>
   </g>
   <g stroke="null" id="svg_3">
    <g stroke="null" id="svg_4">
     <path stroke="null" id="svg_5" fill="#FFFFFF" d="m41.48613,51.99035l-18.3296,0c-5.97239,0 -10.83149,-4.8586 -10.83149,-10.83149l0,-18.3296c0,-5.97289 4.8591,-10.83149 10.83149,-10.83149l18.3296,0c5.97289,0 10.83149,4.8586 10.83149,10.83149l0,18.3301c0,5.97239 -4.8586,10.83099 -10.83149,10.83099zm-18.3296,-36.6597c-4.13473,0 -7.49861,3.36388 -7.49861,7.49861l0,18.3301c0,4.13473 3.36388,7.49861 7.49861,7.49861l18.3296,0c4.13473,0 7.49861,-3.36388 7.49861,-7.49861l0,-18.3301c0,-4.13473 -3.36388,-7.49861 -7.49861,-7.49861l-18.3296,0z"/>
    </g>
    <g stroke="null" id="svg_6">
     <path stroke="null" id="svg_7" fill="#FFFFFF" d="m32.32133,41.99221c-5.51298,0 -9.99814,-4.48567 -9.99814,-9.99814c0,-5.51348 4.48517,-9.99814 9.99814,-9.99814s9.99814,4.48467 9.99814,9.99814c0,5.51248 -4.48517,9.99814 -9.99814,9.99814zm0,-16.66341c-3.67532,0 -6.66526,2.98995 -6.66526,6.66526c0,3.67582 2.98995,6.66526 6.66526,6.66526s6.66526,-2.98945 6.66526,-6.66526c0,-3.67532 -2.98945,-6.66526 -6.66526,-6.66526z"/>
    </g>
    <g stroke="null" id="svg_8">
     <circle stroke="null" id="svg_9" r="2.29107" fill="#FFFFFF" cy="21.37103" cx="42.94435"/>
    </g>
   </g>
  </g>
 </g>
</svg>